<svg width="428" height="437" viewBox="0 0 428 437" fill="none" xmlns="http://www.w3.org/2000/svg">
<path d="M387.546 176.387C390.093 188.32 391.413 200.667 391.413 213.347C391.413 226.013 390.093 238.373 387.546 250.293C387.106 252.413 386.626 254.48 386.106 256.56C384.533 262.88 382.613 269.053 380.359 275.08C378.373 280.48 376.106 285.747 373.599 290.88C369.613 299.107 365 306.96 359.813 314.4C357.8 317.294 355.706 320.12 353.533 322.88C333.893 347.853 307.693 367.413 277.519 378.947V390.64H154.08V380.187C122.866 368.96 95.7062 349.24 75.4395 323.787C67.8529 314.28 61.2261 303.987 55.7327 293.04C52.7727 287.227 50.1726 281.227 47.8926 275.08H30.626L45.3729 267.813C44.2795 264.467 43.306 261.094 42.426 257.667C41.786 255.24 41.2129 252.787 40.7062 250.293C38.1595 238.373 36.8395 226.013 36.8395 213.347C36.8395 200.667 38.1595 188.32 40.7062 176.387C41.2395 173.787 41.8392 171.214 42.5192 168.654C43.4125 165.24 44.3993 161.867 45.4926 158.52C46.226 156.187 47.0393 153.894 47.8926 151.6C50.2126 145.334 52.8796 139.24 55.8796 133.32C61.413 122.387 68.0392 112.12 75.6525 102.627C95.9192 77.3067 122.96 57.6667 154.08 46.4934V36.0669H212.599C213.106 36.0535 213.613 36.0536 214.119 36.0536C214.639 36.0536 215.146 36.0535 215.666 36.0669H277.519V47.7335C307.799 59.3202 334.093 78.9868 353.746 104.08C355.92 106.84 358.013 109.68 359.999 112.574C365.186 120.027 369.786 127.894 373.746 136.12C376.2 141.147 378.399 146.32 380.359 151.6C382.666 157.747 384.599 164.04 386.186 170.48C386.679 172.44 387.146 174.4 387.546 176.387" fill="#012968"/>
<path d="M86.0658 107.787L75.6522 102.626C74.7455 103.76 73.8523 104.907 72.959 106.08C73.8523 104.907 74.7455 103.76 75.6522 102.626C78.4655 99.1065 81.4123 95.7065 84.4923 92.4132C84.5323 92.3599 84.5992 92.2933 84.6392 92.24C84.6792 92.2133 84.7193 92.1732 84.746 92.1332C99.7593 76.1199 117.706 62.8933 137.732 53.32C137.812 53.28 137.893 53.2399 137.973 53.1999C138.013 53.1866 138.039 53.1599 138.079 53.1465C143.266 50.6799 148.613 48.4531 154.079 46.4931V46.4799V63.52C128.026 72.8933 104.826 88.1866 86.0658 107.787" fill="#01245B"/>
<path d="M386.106 256.56C384.533 262.88 382.612 269.053 380.359 275.08C378.372 280.48 376.106 285.747 373.599 290.88C369.613 299.107 364.999 306.96 359.813 314.4C357.799 317.293 355.706 320.12 353.533 322.88L277.519 285.2L257.119 275.08L252.746 272.907L215.759 254.573L207.119 250.293L178.839 236.253L174.826 234.28L154.079 223.973H154.052L144.173 219.067L132.452 213.253L58.1326 176.387L42.519 168.653C43.4124 165.24 44.3991 161.867 45.4925 158.52C46.2258 156.187 47.0391 153.893 47.8925 151.6C50.2125 145.333 52.8795 139.24 55.8795 133.32C61.4128 122.387 68.039 112.12 75.6524 102.627L154.052 141.507H154.079L174.466 151.6L178.839 153.787L215.826 172.12L224.452 176.387L227.546 177.933L252.746 190.413L258.199 193.12L277.519 202.693L299.133 213.427L373.466 250.293L386.106 256.56" fill="white"/>
<path d="M373.599 290.88C369.613 299.107 365 306.96 359.813 314.4L280.519 275.08L277.519 273.6L252.746 261.294L230.519 250.294L227.48 248.774L186.546 228.494L178.84 224.654L155.88 213.294L154.08 212.387L154.053 212.374L144.173 207.467L81.5062 176.387L45.4927 158.52C46.226 156.187 47.0393 153.894 47.8927 151.6C50.2127 145.334 52.8797 139.24 55.8797 133.32L92.7463 151.6L142.733 176.387L154.053 182.014H154.08L174.853 192.334L178.84 194.32L186.573 198.134L217.24 213.347L252.746 230.947L258.186 233.627L277.519 243.227L291.746 250.294L341.746 275.08L373.599 290.88" fill="#C60C30"/>
<path d="M386.185 170.48L374.199 176.387L299.132 213.427L277.519 224.094L258.185 233.627L252.746 236.307L227.479 248.774L224.425 250.294L215.759 254.574L178.839 272.787L174.172 275.08L154.079 285H154.052L75.439 323.787C67.8524 314.28 61.2256 303.987 55.7323 293.04C52.7723 287.227 50.1722 281.227 47.8922 275.08H30.6255L45.3724 267.814C44.279 264.467 43.3055 261.094 42.4255 257.667L57.3989 250.294L132.452 213.254L144.172 207.467L154.052 202.6H154.079L174.852 192.334L178.839 190.374L207.172 176.387L215.825 172.12L252.746 153.907L257.399 151.6L277.519 141.694L353.746 104.08C355.919 106.84 358.012 109.681 359.999 112.574C365.186 120.027 369.786 127.894 373.746 136.12C376.199 141.147 378.399 146.32 380.359 151.6C382.665 157.747 384.599 164.04 386.185 170.48" fill="white"/>
<path d="M373.746 136.12L342.372 151.6L292.132 176.387L277.519 183.6L258.199 193.12L252.746 195.827L217.239 213.347L186.546 228.493L178.839 232.28L174.825 234.28L154.079 244.52H154.052L142.372 250.293L92.1187 275.08L55.7323 293.04C52.7723 287.227 50.1722 281.227 47.8922 275.08H30.6255L45.3724 267.813L80.9057 250.293L144.172 219.067L154.052 214.174H154.079L155.879 213.293L178.839 201.96L186.572 198.133L227.546 177.933L230.666 176.387L252.746 165.507L277.519 153.293L280.892 151.6L359.999 112.574C365.186 120.027 369.786 127.893 373.746 136.12" fill="#C60C30"/>
<path d="M154.08 390.641H277.52V36.0741H154.08V390.641Z" fill="white"/>
<path d="M391.412 213.347C391.412 226.013 390.092 238.373 387.546 250.293C387.106 252.413 386.626 254.48 386.106 256.56C384.532 262.88 382.612 269.053 380.359 275.08H30.6255L45.3724 267.813C44.279 264.467 43.3055 261.093 42.4255 257.667C41.7855 255.24 41.2124 252.787 40.7057 250.293C38.159 238.373 36.839 226.013 36.839 213.347C36.839 200.667 38.159 188.32 40.7057 176.387C41.239 173.787 41.8387 171.214 42.5187 168.654C43.4121 165.24 44.3988 161.867 45.4922 158.52C46.2255 156.187 47.0388 153.893 47.8922 151.6H380.359C382.666 157.747 384.599 164.04 386.185 170.48C386.679 172.44 387.146 174.4 387.546 176.387C390.092 188.32 391.412 200.667 391.412 213.347" fill="white"/>
<path d="M178.839 390.641H252.747V36.0741H178.839V390.641Z" fill="#C60C30"/>
<path d="M391.413 213.347C391.413 226.014 390.093 238.374 387.546 250.294H40.706C38.1594 238.374 36.8394 226.014 36.8394 213.347C36.8394 200.667 38.1594 188.321 40.706 176.387H387.546C390.093 188.321 391.413 200.667 391.413 213.347Z" fill="#C60C30"/>
<path d="M214.133 390.627C116.213 390.627 36.8395 311.253 36.8395 213.347C36.8395 115.427 116.213 36.0536 214.133 36.0536C312.039 36.0536 391.413 115.427 391.413 213.347C391.413 311.253 312.039 390.627 214.133 390.627M214.133 0.106992C96.3594 0.106992 0.892578 95.5735 0.892578 213.347C0.892578 331.107 96.3594 426.587 214.133 426.587C331.893 426.587 427.373 331.107 427.373 213.347C427.373 95.5735 331.893 0.106992 214.133 0.106992Z" fill="white"/>
<path d="M363.079 117.16C362.079 115.613 361.053 114.08 359.999 112.574C358.013 109.68 355.919 106.84 353.746 104.08L343.479 109.147C325.293 89.7469 302.799 74.4402 277.519 64.7602V47.7336C293.826 53.9736 308.973 62.547 322.546 73.0536C322.573 73.0803 322.599 73.0936 322.626 73.1203C322.706 73.1736 322.772 73.2402 322.852 73.2935C322.906 73.3468 322.986 73.4004 323.039 73.4404C323.093 73.4804 323.146 73.5202 323.199 73.5602C323.306 73.6535 323.439 73.747 323.546 73.8404C323.573 73.867 323.599 73.8804 323.626 73.907C333.106 81.347 341.786 89.7336 349.573 98.9336V98.9469C349.679 99.0669 349.773 99.1735 349.866 99.2935C349.893 99.3202 349.919 99.347 349.946 99.387C350.039 99.4936 350.132 99.6136 350.226 99.7203C350.279 99.7736 350.319 99.8402 350.373 99.8935C350.413 99.9468 350.453 100 350.506 100.054C350.559 100.12 350.626 100.2 350.692 100.28C350.706 100.294 350.719 100.307 350.733 100.32C351.759 101.56 352.759 102.814 353.746 104.08C355.919 106.84 358.013 109.68 359.999 112.574C361.053 114.08 362.079 115.613 363.079 117.16" fill="#01245B"/>
<path d="M277.519 64.7603C269.519 61.6936 261.24 59.2005 252.746 57.3071V40.2803C261.253 42.1603 269.519 44.6671 277.519 47.7204V47.7337V64.7603M154.08 63.5204V46.4803C162.08 43.6003 170.359 41.2803 178.839 39.5603V56.6004C170.346 58.3204 162.08 60.6404 154.08 63.5204Z" fill="#E0E0E0"/>
<path d="M214.133 426.587C98.1594 426.587 3.81258 334.014 0.959245 218.734C0.919245 220.334 0.892578 221.947 0.892578 223.56C0.892578 341.334 96.3594 436.8 214.133 436.8C331.893 436.8 427.373 341.334 427.373 223.56C427.373 221.947 427.333 220.334 427.293 218.734C424.439 334.014 330.093 426.587 214.133 426.587" fill="#D3D3D3"/>
</svg>
