<svg width="491" height="491" viewBox="0 0 491 491" fill="none" xmlns="http://www.w3.org/2000/svg">
<g clip-path="url(#clip0_1_2)">
<path d="M445.767 308.42L392.393 231.93V211.274V199.908V97.241C392.393 90.572 389.789 84.301 385.075 79.596L312.787 7.301C308.073 2.588 301.796 0 295.149 0H77.597C54.161 0 35.103 19.066 35.103 42.494V425.68C35.103 449.107 54.162 468.174 77.597 468.174H236.904H276.618C278.52 470.714 280.533 473.174 282.85 475.379C292.883 484.972 306.397 490.955 321.351 490.955C348.286 490.955 320.104 490.955 355.714 490.955C370.65 490.955 384.197 484.973 394.231 475.379C405.924 464.22 411.579 449.554 411.579 435.089V395.029C427.795 391.611 441.693 381.163 449.489 366.218C459.151 347.704 457.731 325.554 445.767 308.42ZM170.095 414.872H87.422V53.302H263.103V100.054C263.103 116.709 276.65 130.263 293.312 130.263H340.072V196.64H339.817V196.679C322.132 196.264 304.288 203.964 292.883 220.139L231.297 308.419C219.332 325.553 217.91 347.703 227.575 366.218C235.37 381.163 249.267 391.611 265.485 395.029V414.871H255.195H170.095V414.872ZM410.316 345.771C408.286 349.637 404.326 352.042 399.979 352.042H399.963H367.388V435.09C367.388 441.527 362.149 446.752 355.729 446.752H355.712H321.35H321.333C314.91 446.752 309.671 441.527 309.671 435.09V352.042H277.097H277.081C272.735 352.042 268.773 349.637 266.745 345.771C264.733 341.905 265.02 337.281 267.528 333.701L328.952 245.637C331.141 242.514 334.721 240.653 338.522 240.653H338.539C342.341 240.653 345.919 242.514 348.107 245.637L409.534 333.701C412.04 337.28 412.328 341.905 410.316 345.771Z" fill="white"/>
</g>
<defs>
<clipPath id="clip0_1_2">
<rect width="490.955" height="490.955" fill="white"/>
</clipPath>
</defs>
</svg>
