<svg width="428" height="437" viewBox="0 0 428 437" fill="none" xmlns="http://www.w3.org/2000/svg">
<path d="M391 214.493C391 236.77 387.426 258.144 380.84 278H45.1604C38.5742 258.144 35 236.77 35 214.493C35 192.23 38.5743 170.856 45.1471 151H380.867C387.426 170.856 391 192.23 391 214.493Z" fill="#DD0000"/>
<path d="M384 160H42C66.8874 91.2499 134.049 42 212.993 42C291.965 42 359.113 91.2499 384 160Z" fill="#1E1E1E"/>
<path d="M381.467 278.4C357.72 345.64 294.547 394.253 219.733 396.493C216.133 396.48 212.56 396.493 208.987 396.493C134.107 394.293 70.8935 345.68 47.1201 278.4H381.467Z" fill="#FFCE00"/>
<path d="M213.987 390.627C116.067 390.627 36.6932 311.253 36.6932 213.347C36.6932 115.427 116.067 36.0536 213.987 36.0536C311.893 36.0536 391.267 115.427 391.267 213.347C391.267 311.253 311.893 390.627 213.987 390.627ZM213.987 0.106995C96.2134 0.106995 0.746582 95.5735 0.746582 213.347C0.746582 331.107 96.2134 426.587 213.987 426.587C331.747 426.587 427.213 331.107 427.213 213.347C427.213 95.5735 331.747 0.106995 213.987 0.106995Z" fill="white"/>
<path d="M381.173 154.254H374.133C345.653 94.4406 284.64 53.0938 213.987 53.0938C143.32 53.0938 82.3198 94.4406 53.8265 154.254H46.7866C53.4266 135.441 63.16 118.081 75.3733 102.801C75.3867 102.774 75.3999 102.747 75.4132 102.734C75.4799 102.654 75.5465 102.574 75.6132 102.494C75.6532 102.454 75.6932 102.387 75.7332 102.347C75.7866 102.28 75.8398 102.214 75.8931 102.147C75.9465 102.08 76 102.014 76.0533 101.947C76.0933 101.894 76.1466 101.827 76.1866 101.774C76.2933 101.654 76.3865 101.534 76.4799 101.414C76.5065 101.387 76.5331 101.361 76.5598 101.321C76.6398 101.227 76.7199 101.12 76.8132 101.014C76.8265 100.987 76.8532 100.96 76.8799 100.947C76.9732 100.814 77.0667 100.707 77.1733 100.574C109.693 61.174 158.907 36.0539 213.987 36.0539C257 36.0539 296.44 51.3739 327.147 76.8539C327.16 76.8806 327.187 76.894 327.2 76.9073C327.307 77.0006 327.413 77.0806 327.52 77.174C327.547 77.2006 327.573 77.2272 327.613 77.2539C327.707 77.3339 327.813 77.414 327.92 77.5073C327.947 77.534 327.96 77.5473 328 77.574C328.107 77.6673 328.227 77.7605 328.333 77.8672C328.413 77.9205 328.48 77.974 328.547 78.0406C328.587 78.0806 328.64 78.1205 328.68 78.1471C328.76 78.2271 328.84 78.2938 328.92 78.3604C328.947 78.3871 328.973 78.4138 329 78.4271C352.493 98.4804 370.667 124.547 381.173 154.254" fill="#1A1A1A"/>
<path d="M213.987 426.587C98.0134 426.587 3.66658 334.014 0.813249 218.734C0.773249 220.334 0.746582 221.947 0.746582 223.56C0.746582 341.334 96.2134 436.8 213.987 436.8C331.747 436.8 427.213 341.334 427.213 223.56C427.213 221.947 427.187 220.334 427.147 218.734C424.293 334.014 329.947 426.587 213.987 426.587Z" fill="#D3D3D3"/>
</svg>
