<svg width="428" height="438" viewBox="0 0 428 438" fill="none" xmlns="http://www.w3.org/2000/svg">
<path d="M391.2 213.92C391.2 234.653 387.64 254.56 381.08 273.04H46.7333C40.1733 254.56 36.6133 234.653 36.6133 213.92C36.6133 193.213 40.1734 173.333 46.7201 154.84H381.093C387.64 173.333 391.2 193.213 391.2 213.92Z" fill="white"/>
<path d="M381.093 154.84H46.7197C71.0397 85.9734 136.706 36.6401 213.906 36.6401C291.12 36.6401 356.773 85.9734 381.093 154.84" fill="#CE2939"/>
<path d="M381.08 273.04C357.333 340.293 294.107 388.92 219.253 391.133C215.733 391.133 212.214 391.133 208.707 391.147C133.787 388.987 70.4934 340.347 46.7334 273.04H381.08" fill="#477050"/>
<path d="M213.907 391.213C115.987 391.213 36.6131 311.84 36.6131 213.933C36.6131 116.013 115.987 36.64 213.907 36.64C311.827 36.64 391.2 116.013 391.2 213.933C391.2 311.84 311.827 391.213 213.907 391.213ZM213.907 0.693417C96.1333 0.693417 0.666504 96.1601 0.666504 213.933C0.666504 331.693 96.1333 427.173 213.907 427.173C331.68 427.173 427.146 331.693 427.146 213.933C427.146 96.1601 331.68 0.693417 213.907 0.693417Z" fill="white"/>
<path d="M381.093 154.84H374.066C345.586 95.0268 284.573 53.6801 213.906 53.6801C143.24 53.6801 82.2263 95.0268 53.7463 154.84H46.7197C55.5864 129.733 69.9598 107.213 88.3731 88.7335C88.4131 88.6935 88.453 88.6535 88.4796 88.6268C88.533 88.5735 88.5998 88.5201 88.6398 88.4668C88.7064 88.4001 88.7864 88.3202 88.8531 88.2535C88.8931 88.2135 88.9331 88.1867 88.9731 88.1467C121.013 56.3067 165.16 36.6401 213.906 36.6401C260.373 36.6401 302.653 54.5068 334.28 83.7601C334.293 83.7868 334.32 83.8001 334.333 83.8134C334.426 83.9067 334.52 83.9868 334.6 84.0668C334.653 84.1201 334.706 84.1734 334.773 84.2134C334.826 84.2667 334.866 84.3068 334.92 84.3601C355.506 103.613 371.506 127.707 381.093 154.84" fill="#B52432"/>
<path d="M213.907 427.173C97.9466 427.173 3.59984 334.6 0.733171 219.32C0.693171 220.92 0.666504 222.533 0.666504 224.147C0.666504 341.92 96.1333 437.387 213.907 437.387C331.68 437.387 427.146 341.92 427.146 224.147C427.146 222.533 427.12 220.92 427.08 219.32C424.213 334.6 329.88 427.173 213.907 427.173Z" fill="#D3D3D3"/>
</svg>
