<svg width="623" height="623" viewBox="0 0 623 623" fill="none" xmlns="http://www.w3.org/2000/svg">
<path d="M54.0266 602.63H311.808C389.553 602.63 462.643 572.35 517.616 517.377C572.591 462.403 602.865 389.31 602.865 311.577C602.865 233.83 572.591 160.737 517.616 105.764C462.643 50.7902 389.553 20.5102 311.808 20.5102C234.063 20.5102 160.972 50.7902 105.998 105.764C51.0251 160.737 20.7495 233.83 20.7495 311.577C20.7495 397.683 58.5964 478.897 124.585 534.404C126.92 536.364 128.231 539.297 128.145 542.337C128.06 545.39 126.588 548.23 124.148 550.057L54.0266 602.63ZM311.808 622.63H24.0172C19.7126 622.63 15.8907 619.87 14.5303 615.79C13.1694 611.71 14.5746 607.217 18.0183 604.63L102.283 541.457C37.6031 482.497 0.749512 399.417 0.749512 311.577C0.749512 228.483 33.1047 150.377 91.8563 91.6168C150.608 32.8701 228.721 0.510193 311.808 0.510193C394.893 0.510193 473.008 32.8701 531.759 91.6168C590.509 150.377 622.865 228.483 622.865 311.577C622.865 394.657 590.509 472.777 531.759 531.523C473.008 590.27 394.893 622.63 311.808 622.63Z" fill="white" fill-opacity="0.7"/>
<path d="M312.715 569.723C307.191 569.723 302.715 565.243 302.715 559.723V63.4168C302.715 57.8968 307.191 53.4167 312.715 53.4167C318.238 53.4167 322.715 57.8968 322.715 63.4168V559.723C322.715 565.243 318.238 569.723 312.715 569.723Z" fill="white" fill-opacity="0.7"/>
<path d="M560.865 321.577H64.563C59.0406 321.577 54.563 317.097 54.563 311.577C54.563 306.043 59.0406 301.577 64.563 301.577H560.865C566.389 301.577 570.865 306.043 570.865 311.577C570.865 317.097 566.389 321.577 560.865 321.577Z" fill="white" fill-opacity="0.7"/>
<path d="M242.468 554.83C238.987 554.83 235.606 553.017 233.763 549.764C201.279 492.55 181.062 431.67 173.672 368.83C167.764 318.564 170.007 266.977 180.339 215.497C197.931 127.83 232.502 71.4702 233.963 69.1102C236.876 64.4169 243.042 62.9769 247.734 65.8835C252.424 68.8036 253.867 74.9637 250.959 79.657C250.616 80.2036 216.583 135.857 199.796 220.19C189.976 269.524 187.89 318.91 193.594 366.977C200.715 426.977 220.082 485.164 251.156 539.897C253.883 544.697 252.199 550.804 247.396 553.524C245.838 554.417 244.142 554.83 242.468 554.83Z" fill="white" fill-opacity="0.7"/>
<path d="M317.428 209.217C291.084 209.217 264.474 206.977 237.895 202.51C166.804 190.577 121.018 167.07 119.104 166.07C114.203 163.524 112.295 157.484 114.842 152.59C117.388 147.684 123.42 145.777 128.32 148.324C128.767 148.55 173.754 171.563 241.935 182.91C281.83 189.55 321.764 190.95 360.639 187.083C409.123 182.27 456.114 169.164 500.306 148.164C505.292 145.804 511.262 147.923 513.63 152.91C516.002 157.897 513.88 163.857 508.891 166.23C462.466 188.297 413.091 202.017 362.134 207.043C347.356 208.497 332.436 209.217 317.428 209.217Z" fill="white" fill-opacity="0.7"/>
<path d="M123.723 477.577C119.981 477.577 116.395 475.47 114.683 471.857C112.312 466.87 114.435 460.91 119.423 458.537C165.847 436.47 215.223 422.75 266.179 417.724C306.897 413.724 348.699 415.244 390.419 422.257C461.508 434.19 507.295 457.697 509.211 458.697C514.111 461.244 516.019 467.283 513.472 472.177C510.925 477.083 504.888 478.99 499.987 476.443C499.217 476.043 454.309 453.164 386.38 441.857C346.484 435.217 306.545 433.817 267.675 437.683C219.189 442.51 172.199 455.603 128.007 476.603C126.621 477.257 125.16 477.577 123.723 477.577Z" fill="white" fill-opacity="0.7"/>
<path d="M385.316 550.964C383.616 550.964 381.893 550.537 380.317 549.617C375.537 546.857 373.903 540.737 376.668 535.964C407.807 482.137 427.18 424.924 434.251 365.91C439.908 318.684 437.752 270.164 427.843 221.697C410.967 139.177 377.213 85.1769 376.875 84.6435C373.921 79.9635 375.312 73.7902 379.979 70.8435C384.645 67.8969 390.824 69.2835 393.776 73.9502C395.24 76.2568 429.835 131.617 447.437 217.697C457.777 268.257 460.021 318.923 454.109 368.283C446.715 430.003 426.484 489.79 393.981 545.977C392.127 549.177 388.769 550.964 385.316 550.964Z" fill="white" fill-opacity="0.7"/>
</svg>
