<svg width="617" height="552" viewBox="0 0 617 552" fill="none" xmlns="http://www.w3.org/2000/svg">
<path d="M234.09 352.613H55.8306C25.0465 352.613 0 327.573 0 296.784V55.829C0 25.0404 25.0465 5.10784e-05 55.8306 5.10784e-05H296.784C327.568 5.10784e-05 352.616 25.0404 352.616 55.829V109.049C352.616 114.57 348.136 119.044 342.617 119.044C337.096 119.044 332.614 114.57 332.614 109.049V55.829C332.614 36.0666 316.54 20.0051 296.784 20.0051H55.8306C36.0743 20.0051 20.0005 36.0666 20.0005 55.829V296.784C20.0005 316.546 36.0743 332.608 55.8306 332.608H234.09C239.614 332.608 244.09 337.082 244.09 342.618C244.09 348.124 239.614 352.613 234.09 352.613" fill="#3D3D3D"/>
<path d="M319.384 158.12C299.629 158.12 283.554 174.186 283.554 193.947V434.901C283.554 454.661 299.629 470.728 319.384 470.728H349.657C355.19 470.728 359.658 475.21 359.658 480.723V519.242L412.124 473.205C413.95 471.616 416.297 470.728 418.724 470.728H560.337C580.097 470.728 596.164 454.661 596.164 434.901V193.947C596.164 174.186 580.097 158.12 560.337 158.12H319.384ZM349.657 551.332C348.257 551.332 346.856 551.032 345.537 550.43C341.963 548.826 339.658 545.261 339.658 541.323V490.732H319.384C288.599 490.732 263.554 465.687 263.554 434.901V193.947C263.554 163.16 288.599 138.115 319.384 138.115H560.337C591.123 138.115 616.168 163.16 616.168 193.947V434.901C616.168 465.687 591.123 490.732 560.337 490.732H422.484L356.257 548.855C354.391 550.473 352.044 551.332 349.657 551.332Z" fill="#3D3D3D"/>
<path d="M277.909 121.859H73.7351C68.2106 121.859 63.7346 117.38 63.7346 111.869C63.7346 106.343 68.2106 101.864 73.7351 101.864H277.909C283.432 101.864 287.909 106.343 287.909 111.869C287.909 117.38 283.432 121.859 277.909 121.859Z" fill="#3D3D3D"/>
<path d="M175.815 121.878C170.293 121.878 165.815 117.398 165.815 111.885V72.6069C165.815 67.093 170.293 62.6139 175.815 62.6139C181.34 62.6139 185.816 67.093 185.816 72.6069V111.885C185.816 117.398 181.34 121.878 175.815 121.878Z" fill="#3D3D3D"/>
<path d="M82.8898 288.1C78.8716 288.1 75.0829 285.66 73.5537 281.696C71.5715 276.54 74.1418 270.746 79.2971 268.771C133.275 248.005 174.151 215.766 200.794 172.941C220.705 140.935 224.773 114.636 224.811 114.375C225.619 108.914 230.682 105.124 236.145 105.923C241.601 106.722 245.387 111.775 244.607 117.221C244.434 118.441 240.135 147.179 218.357 182.569C198.442 214.924 159.398 259.39 86.4767 287.432C85.2961 287.896 84.0821 288.1 82.8898 288.1" fill="#3D3D3D"/>
<path d="M266.128 288.087C264.935 288.087 263.722 287.875 262.54 287.42C177.616 254.757 135.118 193.885 124.116 176.007C121.221 171.296 122.688 165.138 127.392 162.243C132.094 159.349 138.254 160.81 141.148 165.521C151.319 182.052 190.649 238.34 269.719 268.748C274.874 270.734 277.447 276.523 275.463 281.674C273.934 285.647 270.145 288.087 266.128 288.087" fill="#3D3D3D"/>
<path d="M512.007 413.245C508.061 413.245 504.309 410.891 502.73 407.014L439.718 251.901L376.709 407.014C374.628 412.137 368.802 414.588 363.682 412.511C358.562 410.434 356.096 404.591 358.175 399.482L430.456 221.565C431.992 217.799 435.661 215.334 439.718 215.334C443.789 215.334 447.458 217.799 448.995 221.565L521.27 399.482C523.333 404.591 520.882 410.434 515.759 412.511C514.541 413.01 513.253 413.245 512.007 413.245Z" fill="#3D3D3D"/>
<path d="M486.706 355.469H390.919C385.386 355.469 380.919 350.989 380.919 345.469C380.919 339.949 385.386 335.469 390.919 335.469H486.706C492.226 335.469 496.706 339.949 496.706 345.469C496.706 350.989 492.226 355.469 486.706 355.469Z" fill="#3D3D3D"/>
</svg>
